M48
;GenerationSoftware,Autodesk,EAGLE,9.6.2*%
;CreationDate,2021-01-29T15:38:51Z*%
FMAT,2
ICI,OFF
METRIC,TZ,000.000
T8C0.600
T7C0.650
T6C0.813
T5C1.000
T4C1.016
T3C1.020
T2C1.100
T1C1.118
%
G90
M71
T1
X-102870Y95250
X-102870Y85090
X-92710Y91440
X-82550Y45720
X-92710Y45720
X-82550Y68580
X-92710Y68580
X-82550Y91440
T2
X-144950Y62230
X-191219Y77470
X-144950Y46990
X-191219Y46990
X-191219Y62230
X-144950Y31750
X-191219Y31750
X-144950Y77470
T3
X-69850Y83820
X-31750Y83820
X-69850Y86360
X-31750Y86360
X-69850Y22860
X-31750Y88900
X-69850Y91440
X-69850Y93980
X-31750Y91440
X-31750Y93980
X-69850Y30480
X-31750Y30480
X-69850Y33020
X-31750Y33020
X-69850Y35560
X-31750Y35560
X-31750Y55880
X-69850Y55880
X-69850Y40640
X-31750Y40640
X-31750Y53340
X-69850Y38100
X-69850Y48260
X-69850Y53340
X-31750Y38100
X-69850Y76200
X-69850Y50800
X-31750Y48260
X-69850Y43180
X-69850Y58420
X-31750Y43180
X-69850Y88900
X-31750Y63500
X-69850Y45720
X-31750Y45720
X-69850Y63500
X-31750Y60960
X-69850Y60960
X-31750Y58420
X-31750Y27940
X-69850Y27940
X-31750Y25400
X-69850Y25400
X-31750Y22860
X-31750Y20320
X-69850Y66040
X-31750Y17780
X-69850Y17780
X-31750Y15240
X-69850Y15240
X-31750Y12700
X-69850Y12700
X-31750Y66040
X-69850Y68580
X-31750Y68580
X-31750Y50800
X-69850Y71120
X-31750Y71120
X-69850Y73660
X-31750Y73660
X-31750Y76200
X-69850Y78740
X-31750Y78740
X-69850Y81280
X-31750Y81280
X-69850Y20320
T4
X-109220Y67310
X-109220Y64770
X-109220Y53340
X-109220Y24130
X-96520Y104140
X-109220Y21590
X-109220Y19050
X-109220Y78740
X-109220Y76200
X-109220Y90170
X-109220Y87630
X-109220Y92710
X-109220Y35560
X-109220Y33020
X-109220Y30480
X-109220Y46990
X-109220Y44450
X-109220Y41910
X-109220Y58420
X-109220Y55880
X-93980Y104140
X-170815Y100330
X-187999Y90932
X-187999Y103632
X-199390Y46990
X-199390Y41910
X-199390Y31750
X-199390Y26670
X-199390Y62230
X-199390Y57150
X-199390Y77470
X-199390Y72390
X-99060Y104140
X-109220Y104140
X-109220Y101600
X-109220Y99060
X-109220Y81280
X-109220Y69850
X-159385Y100330
X-163195Y100330
X-167005Y100330
T5
X-10160Y63500
X-10160Y66040
X-10160Y68580
X-12700Y50800
X-12700Y55880
X-12700Y58420
X-12700Y60960
X-12700Y63500
X-12700Y66040
X-12700Y68580
X-44450Y5080
X-41910Y5080
X-39370Y5080
X-210820Y74930
X-210820Y77470
X-10160Y17780
X-163830Y106680
X-177800Y2540
X-175260Y2540
X-10160Y25400
X-10160Y22860
X-10160Y20320
X-166370Y106680
X-12700Y53340
X-44450Y102870
X-41910Y102870
X-39370Y102870
X-10160Y31750
X-10160Y34290
X-10160Y36830
X-10160Y39370
X-10160Y41910
X-10160Y50800
X-10160Y53340
X-10160Y15240
X-10160Y58420
X-10160Y60960
X-10160Y55880
T6
X-99060Y92710
X-46990Y30480
X-85090Y43180
X-82550Y40640
X-85090Y40640
X-93980Y101600
X-99060Y87630
X-96520Y101600
X-105410Y106680
X-105410Y104140
X-99068Y107702
X-101608Y107702
X-83820Y88900
X-86360Y88900
X-82550Y66040
X-85090Y66040
X-82550Y43180
X-53340Y53340
X-182849Y19715
X-180309Y19715
X-83820Y86360
X-86360Y86360
X-82550Y63500
X-85090Y63500
X-66040Y15240
X-58420Y15240
X-58420Y17780
X-66040Y17780
X-58420Y25400
X-66040Y25400
X-66040Y22860
X-58420Y22860
X-55880Y53340
X-50800Y53340
X-35560Y25400
X-40640Y25400
X-38100Y25400
X-48260Y53340
X-43180Y53340
X-45720Y53340
X-40640Y53340
X-35560Y53340
X-38100Y53340
X-82550Y83820
X-82550Y81280
X-90170Y81280
X-90170Y83820
X-82550Y78740
X-43180Y25400
X-90170Y78740
X-90170Y76200
X-82550Y60960
X-82550Y58420
X-90170Y58420
X-90170Y60960
X-82550Y55880
X-82550Y53340
X-90170Y55880
X-90170Y53340
X-82550Y38100
X-82550Y35560
X-90170Y35560
X-90170Y38100
X-82550Y33020
X-82550Y30480
X-90170Y33020
X-90170Y30480
X-48260Y25400
X-45720Y25400
X-50800Y25400
X-55880Y25400
X-53340Y25400
X-92710Y73660
X-105410Y73660
X-46990Y38100
X-167418Y91933
X-167418Y94473
X-171228Y91933
X-171228Y94473
X-34290Y38100
X-46990Y35560
X-34290Y35560
X-46990Y33020
X-34290Y33020
X-34290Y30480
X-29210Y50800
X-16510Y50800
X-29210Y53340
X-82550Y76200
X-16510Y53340
X-29210Y55880
X-16510Y55880
X-29210Y58420
X-16510Y58420
X-29210Y60960
X-16510Y60960
X-29210Y63500
X-16510Y63500
X-105410Y81280
X-92710Y81280
X-29210Y66040
X-16510Y66040
X-29210Y68580
X-16510Y68580
X-66040Y12700
X-53340Y12700
X-82550Y22860
X-95250Y22860
X-81946Y93980
X-94646Y93980
X-92710Y50800
X-105410Y50800
X-105410Y58420
X-82550Y19050
X-95250Y19050
X-66040Y10160
X-53340Y10160
X-92710Y58420
X-92710Y27940
X-105410Y27940
X-105410Y35560
X-92710Y35560
X-46990Y43180
X-34290Y43180
X-46990Y40640
X-34290Y40640
X-99060Y90170
X-105466Y84487
X-105466Y94647
T7
X-142240Y25400
X-142240Y5080
X-15240Y41910
X-105410Y101600
X-99060Y95250
X-96520Y64770
X-88900Y64770
X-83820Y104140
X-88900Y99060
X-15240Y25400
X-15240Y11430
X-115570Y35560
X-115570Y55880
X-115570Y73660
X-78740Y49530
X-35560Y49530
X-101600Y13970
X-123190Y13970
X-78740Y72390
X-78740Y87630
X-78740Y102870
X-54610Y20320
X-46990Y20320
X-39370Y20320
X-57150Y49530
X-49530Y49530
X-41910Y49530
T8
X-175260Y7608
X-177800Y7608
X-175260Y15868
X-177800Y15868
X-180340Y15868
X-182880Y15868
X-182880Y7608
X-180370Y7608
M30